<?xml version="1.0" standalone="no"?>
<!DOCTYPE svg PUBLIC "-//W3C//DTD SVG 1.1//EN" "http://www.w3.org/Graphics/SVG/1.1/DTD/svg11.dtd">
<svg xmlns="http://www.w3.org/2000/svg" xmlns:cc="http://creativecommons.org/ns#" xmlns:dc="http://purl.org/dc/elements/1.1/" xmlns:rdf="http://www.w3.org/1999/02/22-rdf-syntax-ns#" width="382.6700134277344" height="133.3300018310547" version="1.1" viewBox="0 0 382.67 133.33" xml:space="preserve"><metadata><rdf:RDF><cc:Work rdf:about=""><dc:format>image/svg+xml</dc:format><dc:type rdf:resource="http://purl.org/dc/dcmitype/StillImage"/><dc:title/></cc:Work></rdf:RDF></metadata><defs><clipPath id="clipPath26"><path d="m0 100h287v-100h-287z"/></clipPath></defs><g transform="matrix(1.3333 0 0 -1.3333 0 133.33)"><g clip-path="url(#clipPath26)"><g transform="translate(286.96 67.079)"><path d="m0 0v-17.184c-14.201 0.343-28.578 2.735-42.925 4.786l1.806 4.851c-12.967 1.852-26.002 3.416-38.759 2.922v4.525c13.741 2.915 28.292 3.282 42.815 3.419l-1.803-4.842c13.062 0.123 26.173 0.069 38.866 1.523" fill="#f8991d"/></g><g transform="translate(254.91 83.845)"><path d="m0 0 1.734 4.667c-16.76-1.558-33.745-2.58-49.561-6.589v-10.008c14.337 2.857 29.449 3.041 44.556 3.158l-1.74-4.675c12.456 0.095 24.991 0.154 37.062 1.633v16.505c-10.329-2.434-21.18-3.68-32.051-4.691" fill="#ffcd05"/></g><g transform="translate(207.09 100)"><path d="m0 0v-12.903c16.476 3.929 34.14 4.78 51.451 6.491l-1.891-5.076c10.307 1.021 20.565 2.352 30.318 4.821v6.667z" fill="#f7ec13"/></g><g transform="translate(286.96 44.501)"><path d="m0 0v-15.814c-16.37 1.435-32.839 5.717-49.219 9.117l1.897 5.095c-10.857 2.253-21.723 4.112-32.556 4.497v9.87c12.179 0.521 24.557-0.856 36.953-2.585l-1.896-5.093c14.949-2.087 30.025-4.683 44.821-5.087" fill="#f26722"/></g><g transform="translate(235.85 32.709)"><path d="m0 0 1.896 5.096c-10.282 2.091-20.399 3.777-30.658 4.141v-21.825h79.877v3.114c-16.945 1.49-34.16 6.025-51.115 9.474" fill="#ef3c23"/></g><g transform="translate(4.5396 11.992)"><path d="m0 0h-0.034l-1.677-6.758h3.354zm-0.915 1.017h1.863l3.574-12.705h-1.558l-0.999 3.659h-4.015l-0.931-3.659h-1.559z" fill="#1d1d1b"/></g><g transform="translate(18.03 .2031)"><path d="m0 0h-1.084v1.982h-0.034c-0.373-1.44-1.507-2.185-2.914-2.185-3.777 0-4.065 3.76-4.065 6.742 0 2.963 0.525 6.521 4.201 6.521 2.422 0 3.811-1.576 3.777-3.947h-1.423c-0.017 1.558-0.677 2.642-2.287 2.676-2.777 0.051-2.811-3.133-2.811-5.302 0-1.93-0.102-5.301 2.405-5.42 2.609-0.118 2.845 2.27 2.829 4.286h-2.829v1.27h4.235z" fill="#1d1d1b"/></g><g transform="translate(20.396 .3047)"><path d="m0 0v12.704h6.352v-1.27h-4.946v-4.201h4.641v-1.271h-4.641v-4.691h4.979v-1.271z" fill="#1d1d1b"/></g><g transform="translate(35.019 13.009)"><path d="m0 0h1.406v-12.704h-2.303l-3.558 10.163c-0.203 0.576-0.355 1.152-0.474 1.915h-0.034c0.017-0.644 0.034-1.305 0.034-1.949v-10.129h-1.405v12.704h2.286l3.608-10.4c0.152-0.39 0.271-0.796 0.44-1.389h0.034c-0.017 0.457-0.034 0.948-0.034 1.422z" fill="#1d1d1b"/></g><g transform="translate(44.735 9.1978)"><path d="m0 0c-0.034 1.507-0.525 2.794-2.287 2.794-2.439 0-2.472-3.472-2.472-5.148-0.068-1.728-0.102-5.573 2.472-5.573 1.678 0 2.033 1.371 2.203 2.76 0.034 0.289 0.05 0.576 0.084 0.865h1.406c-0.034-0.255-0.034-0.526-0.068-0.78-0.084-1.033-0.135-1.812-0.745-2.693-0.66-0.915-1.541-1.423-2.761-1.423-3.913 0-4.048 3.778-4.048 6.809 0 2.863 0.424 6.454 4.031 6.454 2.405 0 3.659-1.795 3.591-4.065z" fill="#1d1d1b"/></g><path d="m48.305 13.009h1.406v-12.704h-1.406z" fill="#1d1d1b"/><g transform="translate(55.989 11.992)"><path d="m0 0h-0.034l-1.677-6.758h3.354zm-0.915 1.017h1.863l3.574-12.705h-1.558l-0.999 3.659h-4.015l-0.931-3.659h-1.559z" fill="#1d1d1b"/></g><g transform="translate(72.553 13.009)"><path d="m0 0h1.406v-12.704h-2.303l-3.558 10.163c-0.203 0.576-0.355 1.152-0.474 1.915h-0.034c0.017-0.644 0.034-1.305 0.034-1.949v-10.129h-1.405v12.704h2.286l3.608-10.4c0.152-0.39 0.271-0.796 0.44-1.389h0.034c-0.017 0.457-0.034 0.948-0.034 1.422z" fill="#1d1d1b"/></g><g transform="translate(80.093 11.992)"><path d="m0 0h-0.034l-1.677-6.758h3.355zm-0.915 1.017h1.864l3.573-12.705h-1.558l-0.999 3.659h-4.014l-0.932-3.659h-1.558z" fill="#1d1d1b"/></g><g transform="translate(91.712 9.1978)"><path d="m0 0c-0.034 1.507-0.525 2.794-2.287 2.794-2.439 0-2.473-3.472-2.473-5.148-0.067-1.728-0.101-5.573 2.473-5.573 1.677 0 2.033 1.371 2.203 2.76 0.033 0.289 0.05 0.576 0.084 0.865h1.406c-0.034-0.255-0.034-0.526-0.068-0.78-0.084-1.033-0.135-1.812-0.745-2.693-0.66-0.915-1.541-1.423-2.761-1.423-3.913 0-4.049 3.778-4.049 6.809 0 2.863 0.425 6.454 4.032 6.454 2.405 0 3.659-1.795 3.591-4.065z" fill="#1d1d1b"/></g><path d="m95.282 13.009h1.406v-12.704h-1.406z" fill="#1d1d1b"/><g transform="translate(103.14 11.992)"><path d="m0 0c-2.168 0-2.71-2.27-2.693-5.098 0.016-3.676 0.389-5.624 2.726-5.624 2.338 0 2.711 1.948 2.727 5.624 0.017 2.828-0.525 5.098-2.76 5.098m0.067 1.271c3.71 0 4.167-3.422 4.15-6.335-0.017-3.524-0.474-6.928-4.184-6.928-3.709 0-4.149 3.404-4.183 6.928 0 2.913 0.44 6.335 4.217 6.335" fill="#1d1d1b"/></g><g transform="translate(115.81 13.009)"><path d="m0 0h1.406v-12.704h-2.304l-3.557 10.163c-0.203 0.576-0.356 1.152-0.474 1.915h-0.034c0.017-0.644 0.034-1.305 0.034-1.949v-10.129h-1.406v12.704h2.287l3.608-10.4c0.152-0.39 0.271-0.796 0.44-1.389h0.034c-0.017 0.457-0.034 0.948-0.034 1.422z" fill="#1d1d1b"/></g><g transform="translate(123.35 11.992)"><path d="m0 0h-0.034l-1.676-6.758h3.354zm-0.914 1.017h1.863l3.573-12.705h-1.557l-1 3.659h-4.014l-0.931-3.659h-1.559z" fill="#1d1d1b"/></g><g transform="translate(129.51 .3047)"><path d="m0 0v12.704h1.406v-11.433h5.183v-1.271z" fill="#1d1d1b"/></g><g transform="translate(143.6 1.5752)"><path d="m0 0h2.253c2.066 0 2.913 1.542 2.778 5.335-0.102 2.897-0.509 4.829-2.778 4.829h-2.253zm-1.406-1.271v12.705h3.489c3.964 0 4.506-3.219 4.404-6.352-0.101-3.1-0.711-6.353-4.15-6.353z" fill="#1d1d1b"/></g><g transform="translate(152.19 .3047)"><path d="m0 0v12.704h6.352v-1.27h-4.946v-4.201h4.641v-1.271h-4.641v-4.691h4.98v-1.271z" fill="#1d1d1b"/></g><g transform="translate(164.79 .3047)"><path d="m0 0v12.704h2.372v-5.031h3.319v5.031h2.372v-12.704h-2.372v5.81h-3.319v-5.81z" fill="#1d1d1b"/></g><path d="m175.02 13.009h2.372v-12.704h-2.372z" fill="#1d1d1b"/><g transform="translate(182.99 2.168)"><path d="m0 0c2.118 0 2.253 1.118 2.253 4.794 0 2.998-0.305 4.184-1.728 4.184h-1.558v-8.978zm-3.404-1.863v12.704h4.946c0.576 0 1.728-0.255 2.456-1.44 0.542-0.881 0.694-2.287 0.694-4.387 0-2.507 0-5.404-1.948-6.538-0.525-0.305-1.168-0.339-1.762-0.339z" fill="#1d1d1b"/></g><g transform="translate(192.07 7.6392)"><path d="m0 0h1.863c0.779 0.051 1.389 0.559 1.389 1.829 0 1.423-0.593 1.66-1.49 1.677h-1.762zm0-1.863v-5.471h-2.372v12.704h4.489c2.05 0 3.608-0.712 3.608-3.049 0-1.389-0.356-2.846-1.948-3.066v-0.034c1.406-0.186 1.829-1.084 1.829-2.304 0-0.525-0.067-3.642 0.508-4.014v-0.237h-2.608c-0.288 0.813-0.237 2.371-0.254 3.218-0.017 0.779 0 1.846-0.813 2.083-0.644 0.187-1.338 0.17-2.016 0.17z" fill="#1d1d1b"/></g><g transform="translate(202.15 4.6753)"><path d="m0 0c0-1.051 0.084-2.761 1.711-2.761 1.694 0 1.71 1.744 1.71 2.964v3.252c0 1.016 0.052 3.27-1.71 3.27-1.863 0-1.711-2.22-1.711-3.202zm-2.439 2.998c0.102 3.235 0.356 5.64 4.15 5.64s4.048-2.405 4.15-5.64v-1.812c0-3.388-0.255-5.861-4.15-5.861-3.896 0-4.15 2.473-4.15 5.861z" fill="#1d1d1b"/></g><g transform="translate(217.6 4.8271)"><path d="m0 0c-0.017-0.237-0.034-0.491-0.051-0.728-0.118-2.321-0.897-4.099-3.54-4.099-3.896 0-4.15 2.473-4.15 5.861v1.812c0.102 3.235 0.356 5.64 4.15 5.64 2.118-0.033 3.303-1.117 3.472-3.286 0.035-0.322 0.068-0.643 0.052-0.965h-2.338c-0.102 0.813-0.017 2.338-1.186 2.338-1.863 0-1.711-2.219-1.711-3.202v-3.523c0-1.051 0.085-2.761 1.711-2.761 1.304 0 1.152 2.101 1.203 2.913z" fill="#1d1d1b"/></g><g transform="translate(222.12 5.3862)"><path d="m0 0h2.033l-0.644 3.608c-0.118 0.593-0.169 1.169-0.237 1.762-0.017 0.288-0.051 0.575-0.085 0.847h-0.034c-0.033-0.272-0.067-0.559-0.084-0.847-0.068-0.593-0.119-1.169-0.238-1.762zm-3.54-5.082 3.032 12.705h3.201l2.88-12.705h-2.541l-0.627 3.219h-2.778l-0.627-3.219z" fill="#1d1d1b"/></g><g transform="translate(231.6 7.6392)"><path d="m0 0h1.863c0.779 0.051 1.389 0.559 1.389 1.829 0 1.423-0.593 1.66-1.49 1.677h-1.762zm0-1.863v-5.471h-2.371v12.704h4.488c2.05 0 3.608-0.712 3.608-3.049 0-1.389-0.356-2.846-1.948-3.066v-0.034c1.406-0.186 1.829-1.084 1.829-2.304 0-0.525-0.067-3.642 0.508-4.014v-0.237h-2.608c-0.288 0.813-0.237 2.371-0.254 3.218-0.017 0.779 0 1.846-0.813 2.083-0.644 0.187-1.338 0.17-2.016 0.17z" fill="#1d1d1b"/></g><g transform="translate(242.41 2.168)"><path d="m0 0c0.491 0 1-0.051 1.423 0.136 0.643 0.288 0.728 1.117 0.728 1.761 0 1.373-0.271 1.948-1.744 1.948h-0.915v-3.845zm-0.068 5.708c0.576 0 1.321-0.034 1.694 0.441 0.22 0.322 0.254 0.762 0.254 1.372 0 0.949-0.203 1.422-1.287 1.457h-1.101v-3.27zm-2.811-7.571v12.704h3.828c1.016 0 2.015-0.068 2.693-0.932 0.542-0.694 0.627-1.423 0.627-2.287 0-1.101-0.238-2.185-1.525-2.659v-0.034c1.339-0.186 1.846-1.304 1.846-2.947 0-0.525-0.034-1.05-0.169-1.558-0.508-1.61-1.423-2.287-3.117-2.287z" fill="#1d1d1b"/></g><g transform="translate(254.57 13.009)"><path d="m0 0h2.372v-8.859c0-2.812-0.915-4.15-4.015-4.15-3.133 0-4.048 1.338-4.048 4.15v8.859h2.371v-8.655c0-1.22 0.085-2.44 1.694-2.44 1.542 0 1.626 1.22 1.626 2.44z" fill="#1d1d1b"/></g><g transform="translate(261.44 7.6392)"><path d="m0 0h1.863c0.779 0.051 1.389 0.559 1.389 1.829 0 1.423-0.593 1.66-1.49 1.677h-1.762zm0-1.863v-5.471h-2.372v12.704h4.489c2.05 0 3.608-0.712 3.608-3.049 0-1.389-0.356-2.846-1.948-3.066v-0.034c1.406-0.186 1.829-1.084 1.829-2.304 0-0.525-0.067-3.642 0.508-4.014v-0.237h-2.608c-0.288 0.813-0.237 2.371-0.254 3.218-0.017 0.779 0 1.846-0.813 2.083-0.644 0.187-1.338 0.17-2.016 0.17z" fill="#1d1d1b"/></g><g transform="translate(271.52 4.6753)"><path d="m0 0c0-1.051 0.084-2.761 1.71-2.761 1.695 0 1.711 1.744 1.711 2.964v3.252c0 1.016 0.051 3.27-1.711 3.27-1.863 0-1.71-2.22-1.71-3.202zm-2.439 2.998c0.102 3.235 0.356 5.64 4.149 5.64 3.795 0 4.049-2.405 4.151-5.64v-1.812c0-3.388-0.255-5.861-4.151-5.861-3.895 0-4.149 2.473-4.149 5.861z" fill="#1d1d1b"/></g><g transform="translate(284.36 9.1465)"><path d="m0 0c0.017 1.135-0.085 2.253-1.389 2.253-0.796 0-1.304-0.321-1.304-1.186 0-0.965 0.61-1.338 1.355-1.812 0.779-0.491 2.219-1.44 2.879-2.083 0.813-0.797 1.067-1.559 1.067-2.66 0-2.405-1.592-3.658-3.912-3.658-2.846 0-3.863 1.592-3.863 3.861v0.932h2.372v-0.746c-0.051-1.235 0.322-2.133 1.491-2.133 0.999 0 1.473 0.524 1.473 1.49 0 0.745-0.339 1.254-0.948 1.677-1.237 0.965-2.778 1.66-3.744 2.93-0.39 0.576-0.61 1.271-0.61 1.948 0 2.168 1.22 3.354 3.727 3.354 3.777 0 3.676-2.913 3.693-4.167z" fill="#1d1d1b"/></g><g transform="translate(38.932 50.215)"><path d="m0 0-7.719 35.912h-0.224l-7.719-35.912zm2.125 49.785 21.145-79.88h-16.781l-3.693 16.894h-21.255l-3.692-16.894h-16.781l21.144 79.88z" fill="#1d1d1b"/></g><g transform="translate(158.57 100)"><path d="m0 0v-30.542h18.795v30.542h16.11v-79.88h-16.11v35.465h-18.795v-35.465h-16.11v79.88z" fill="#1d1d1b"/></g><g transform="translate(113.85 45.292)"><path d="m0 0h0.224v54.708h14.767v-79.88h-18.347l-19.69 55.938h-0.224v-55.938h-14.768v79.88h18.572z" fill="#1d1d1b"/></g></g></g></svg>